<svg width="366" height="54" viewBox="0 0 366 54" fill="none" xmlns="http://www.w3.org/2000/svg">
<path d="M7.02897 33.8547V11.7225H11.7149V34.1431C11.7149 34.828 11.7149 35.1524 11.4266 35.9814C11.1022 37.0628 10.1289 38 7.85802 38H0.576736V33.8547H7.02897ZM15.8684 32.485C15.8684 28.7722 18.5358 26.5734 22.8253 26.5734H28.1601V25.3118C28.1601 23.113 27.0066 22.0316 24.6997 22.0316C22.4288 22.0316 21.2032 23.0049 21.023 24.9153H16.6254C16.9498 20.8421 20.0497 18.5352 24.9159 18.5352C27.9438 18.5352 30.1426 19.5445 31.1879 21.0223C32.2333 22.5002 32.6298 23.906 32.6298 25.3839V34.828H35.153V38H31.4763C29.4577 38 28.7008 37.2791 28.4484 35.8012L28.4124 35.0082H28.1601C27.331 37.0268 24.9159 38.3605 21.9962 38.3605C18.2474 38.3605 15.8684 36.0896 15.8684 32.485ZM20.3741 31.692V32.5571C20.3741 34.107 21.5637 34.9 23.4381 34.9C26.3217 34.9 28.1601 33.0257 28.1601 30.2501V29.4211H23.5462C21.5276 29.4211 20.3741 30.3583 20.3741 31.692ZM37.202 32.0885H41.5996C41.6356 33.9629 43.0775 35.0803 45.3844 35.0803C47.5472 35.0803 48.8088 34.1791 48.8088 32.6291C48.8088 31.4757 48.0879 30.7548 46.61 30.5024L42.8973 29.8176C39.3287 29.2048 37.5264 27.4385 37.5264 24.5188C37.5264 20.77 40.5182 18.5352 45.1681 18.5352C49.9262 18.5352 52.7738 20.8782 52.882 24.4828H48.4483C48.4123 22.7165 47.1507 21.7793 45.1321 21.7793C43.1135 21.7793 41.9961 22.6444 41.9961 24.0863C41.9961 25.2758 42.8973 26.0327 44.6995 26.2851L48.196 26.8978C51.6925 27.4385 53.4227 29.2408 53.4227 32.2326C53.4227 36.0896 50.2867 38.3605 45.3844 38.3605C40.2298 38.3605 37.202 35.8372 37.202 32.0885ZM61.7332 38H57.2635V18.8956H61.1565L61.6972 22.4281H62.0216C63.139 19.8328 65.0134 18.5352 67.6808 18.5352C70.4203 18.5352 72.4389 20.0851 73.1959 22.5363H73.5203C74.6738 19.8689 76.7284 18.5352 79.6481 18.5352C83.7213 18.5352 85.9201 21.4188 85.9201 26.3211V38H81.4504V26.8257C81.4504 23.7618 80.2969 22.2119 77.9539 22.2119C75.3586 22.2119 73.8447 24.3386 73.8447 27.5467V38H69.3389V26.8257C69.3389 23.7618 68.1855 22.2119 65.8785 22.2119C63.3193 22.2119 61.7332 24.3025 61.7332 27.4746V38ZM95.3495 16.1922H90.9158V11.362H95.3495V16.1922ZM95.3495 38H90.9158V18.8956H95.3495V38ZM105.066 38H100.596V18.8956H104.525L105.066 22.4281H105.354C106.544 19.941 108.851 18.5352 111.698 18.5352C115.988 18.5352 118.295 21.563 118.295 26.4292V38H113.789V26.8978C113.789 23.8339 112.491 22.32 109.86 22.32C106.94 22.32 105.066 24.5909 105.066 27.9432V38ZM121.967 28.4118C121.967 22.2119 125.536 18.5352 131.159 18.5352C133.826 18.5352 135.953 19.3282 137.539 20.8782C139.161 22.4281 139.954 24.5909 139.954 27.2943C139.954 28.1594 139.918 28.8804 139.81 29.4571H126.545V30.5024C126.545 33.1338 128.419 34.864 131.195 34.864C133.466 34.864 135.088 33.7466 135.629 32.1245H140.062C139.666 33.9989 138.693 35.5128 137.07 36.6663C135.448 37.7837 133.502 38.3605 131.195 38.3605C128.311 38.3605 126.04 37.4593 124.418 35.6931C122.796 33.8908 121.967 31.4757 121.967 28.4118ZM126.545 26.0327V26.3932H135.484V25.8886C135.484 23.5456 133.718 21.9956 131.087 21.9956C128.383 21.9956 126.545 23.6177 126.545 26.0327ZM155.054 38L149.683 11.7225H154.837L157.469 25.9967L158.514 32.8094H158.803L163.705 11.7225H169.724L174.699 32.8454H174.951L175.96 26.0688L178.556 11.7225H183.674L178.339 38H171.815L166.841 17.634H166.588L161.542 38H155.054ZM198.297 18.8956H202.767V38H198.874L198.297 34.5035H197.972C196.855 36.9186 194.656 38.3605 191.664 38.3605C187.591 38.3605 185.284 35.5849 185.284 30.935V18.8956H189.79V30.2862C189.79 33.2059 191.016 34.6838 193.503 34.6838C196.422 34.6838 198.297 32.3768 198.297 28.9525V18.8956Z" fill="white"/>
<path d="M227.267 38H224.564L234.693 11.7225H237.396L227.267 38Z" fill="white"/>
<path d="M264.589 13.7585V18.9852H283.225V13.7585H264.589ZM261.958 11.3434H286V21.4363H261.958V11.3434ZM257.993 31.1327H290.073V33.5117H257.993V31.1327ZM260.299 24.8246H288.091V27.2397H260.299V24.8246ZM272.555 25.5456H275.331C274.646 35.8908 272.519 40.793 258.858 42.9558C258.641 42.2709 258.029 41.2256 257.524 40.6488C270.392 38.8826 272.014 34.7733 272.555 25.5456ZM275.979 31.4931C277.638 37.2605 282.107 39.8198 290.434 40.4686C289.857 41.0453 289.208 42.1267 288.884 42.8837C279.981 41.8383 275.511 38.8105 273.492 31.8176L275.979 31.4931ZM294.038 32.6466H326.155V35.1698H294.038V32.6466ZM295.048 13.9748H325.29V16.462H295.048V13.9748ZM302.401 20.1026H317.865V22.4096H302.401V20.1026ZM302.401 26.3386H317.865V28.6816H302.401V26.3386ZM300.671 9.79347H303.338V33.764H300.671V9.79347ZM316.783 9.79347H319.523V33.764H316.783V9.79347ZM312.746 37.6931L314.585 35.9629C318.874 37.4768 323.452 39.4593 326.264 40.9732L323.812 42.7395C321.253 41.2256 316.964 39.243 312.746 37.6931ZM305.105 35.7466L307.484 37.4768C304.276 39.4593 299.373 41.55 295.48 42.8116C295.084 42.2709 294.255 41.3337 293.678 40.757C297.571 39.6395 302.545 37.5128 305.105 35.7466ZM331.058 11.1993H361.264V42.8476H358.525V13.5062H333.689V42.8476H331.058V11.1993ZM332.68 39.243H360.039V41.4779H332.68V39.243ZM340.285 17.291V20.0305H351.784V17.291H340.285ZM337.87 15.3806H354.307V21.941H337.87V15.3806ZM345.044 27.3118H347.459V29.5106C347.459 32.3583 346.233 36.0349 336.176 38.3779C335.888 37.8012 335.203 36.828 334.698 36.3233C344.287 34.4489 345.044 31.4931 345.044 29.4385V27.3118ZM346.918 34.1966L347.999 32.4664C350.811 33.6199 354.632 35.3861 356.686 36.5035L355.533 38.5221C353.622 37.3326 349.766 35.4582 346.918 34.1966ZM337.005 24.1037H355.209V33.2594H352.649V26.2304H339.456V33.4036H337.005V24.1037Z" fill="white" fill-opacity="0.75"/>
</svg>
